<?xml version="1.0" encoding="UTF-8"?>
<svg id="Layer_2" data-name="Layer 2" xmlns="http://www.w3.org/2000/svg" viewBox="73.22 -1.49 188.46 52.31" width="216" height="60">
  <defs>
    <style>
      .cls-1 {
        fill: #f9f9fa;
      }

      .cls-2 {
        fill: #f9d752;
      }

      .cls-3 {
        fill: #f8d653;
      }

      .cls-4 {
        fill: #ffb850;
      }

      .cls-5 {
        fill: #fcfcfc;
      }

      .cls-6 {
        fill: #f8d857;
      }

      .cls-7 {
        fill: #fdd950;
      }

      .cls-8 {
        fill: #f8d651;
      }

      .cls-9 {
        fill: #fafafb;
      }

      .cls-10 {
        fill: #f8d751;
      }

      .cls-11 {
        fill: #fbfbfb;
      }

      .cls-12 {
        fill: #f9f9f9;
      }

      .cls-13 {
        fill: #fdd850;
      }

      .cls-14 {
        fill: #f7d555;
      }

      .cls-15 {
        fill: #f4f4f4;
      }

      .cls-16 {
        fill: #f5f5f5;
      }

      .cls-17 {
        fill: #f8d856;
      }

      .cls-18 {
        fill: #fcd750;
      }

      .cls-19 {
        fill: #f9d854;
      }

      .cls-20 {
        fill: #fafafa;
      }

      .cls-21 {
        fill: #f8f8f8;
      }

      .cls-22 {
        fill: #f8d54c;
      }

      .cls-23 {
        fill: #f7f7f7;
      }

      .cls-24 {
        fill: #fdfdfd;
      }
    </style>
  </defs>
  <path class="cls-3" d="M252.95,42.32h-3.28c-.4,0-.66-.28-.67-.6,0-.35.25-.66.66-.66h3.25c.41,0,.67.19.7.56.03.33-.18.7-.67.7Z"/>
  <path class="cls-6" d="M251.26,45.35c.33.23.45.55.32.85s-.56.47-.87.24l-2.38-1.68c-.28-.2-.3-.57-.15-.81.18-.29.57-.37.88-.15l2.21,1.55Z"/>
  <path class="cls-17" d="M249.08,39.51c-.29.21-.66.02-.8-.2-.12-.19-.11-.55.14-.74l2.19-1.63c.31-.23.59-.25.82-.07s.38.7.1.89l-2.46,1.75Z"/>
  <path class="cls-16" d="M223.32,38.48c-.23-.49-.64.32-.93.25-.14-.03-.25-.25-.23-.42.05-.35.38-.49.66-.65.46-.25.98-.06,1.17.32.25.51-.07.86-.46,1.2l-.37.33c-.11.1-.48.05-.51-.15-.05-.38.29-.62.66-.88Z"/>
  <path class="cls-2" d="M82.66,19.64c-1.04,0-1.79-.77-1.92-1.77-.04-.33-.28-.55-.55-.51-.27.04-.44.24-.42.55.09,1.13-.65,2.01-1.73,2.23-.31.06-.5.37-.46.6.06.33.35.42.67.42,1.1-.01,1.94.69,2.09,1.74.05.31.36.48.59.42.28-.07.44-.3.4-.66-.13-1,.6-1.77,1.49-2.02.29-.08.46-.33.43-.56-.03-.28-.27-.43-.58-.42ZM80.63,21.39c-.32-.38-.64-.66-1.19-.89.49-.3.69-.62.94-1.11.33.4.67.7,1.14.9-.39.34-.61.57-.89,1.1Z"/>
  <path class="cls-14" d="M79.41,25.33c-1.04.08-1.82-.65-2.06-1.64-.07-.29-.29-.45-.54-.43-.24.02-.47.26-.42.56.17,1.03-.36,1.93-1.35,2.23-.27.08-.36.37-.3.61.05.19.23.32.5.28.98-.11,1.72.56,1.87,1.5.05.32.33.48.6.44.8-.13-.22-2.05,1.81-2.64.28-.08.44-.27.43-.5-.02-.27-.23-.45-.53-.43ZM77.4,26.97c-.31-.29-.59-.53-1.07-.69.39-.36.58-.63.79-1.1.3.33.56.58,1.03.77-.3.29-.48.52-.76,1.02Z"/>
  <g>
    <path class="cls-24" d="M110.48,7.03c-3.07-.2-5.99.4-8.7,1.68-5.68,2.68-9.4,8.39-9.24,14.71.04,1.42-.59,2.67-2.08,2.92-1.36.23-2.75-.72-2.84-2.24-.38-6.12,2.61-12.67,7.18-16.69,6.51-5.73,16.37-7.19,24.15-3.15,5.73,2.97,9.74,8.42,11,14.74.17.87-.37,1.63-.89,2.1-.63.57-1.56.73-2.35.46-.98-.33-1.42-1.16-1.63-2.1-1.51-6.94-7.47-11.98-14.6-12.44Z"/>
    <path class="cls-24" d="M119.51,23.71c-.38,1.33-1.24,2.16-2.32,2.86-3.07,1.99-6.03,4.03-9.25,5.78-1.28.7-2.71.77-4.08.09-.98-.49-2.22-1.68-2.23-3.07l-.03-13.36c0-1.34,1.02-2.56,1.93-3.13,1.3-.8,2.85-.88,4.12-.21,2.09,1.1,4.01,2.33,5.97,3.64l4.3,2.87c1.46.97,2.06,2.83,1.58,4.52Z"/>
    <path class="cls-7" d="M107.93,39.52c6.43.98,12.5-2.02,16.09-7.41.1-.15.13-.31.04-.44s-.4-.21-.53-.04c-2.95,3.75-6.7,6.35-11.53,6.89-2.48.28-4.98.09-7.29-.94,7.73-.39,13.94-4.93,18.18-10.98.81-1.16,1.95-1.98,3.17-1.33-.15.62-.45,1.13-.38,1.83.34-.39.38-.84.6-1.29.33-.68.96-1.22,1.79-1.06.76.14,1.43.95,1.32,1.82-.66,5.39-3.53,10.14-7.97,13.28-3.23,2.29-7.09,3.46-11.07,3.61-5.7.22-11.23-1.71-15.44-5.5-1.97-1.77-3.54-3.78-4.61-6.18-.33-.75-.34-1.52.11-2.22.35-.69,1.1-1,1.86-.75,1.05-.37,2.11-.55,3.21-.35,1.98.51,3.3,2.25,3.47,4.29.12,1.48.71,2.73,1.88,3.7,2.01,1.67,4.47,2.67,7.1,3.07Z"/>
    <path class="cls-4" d="M87.71,31.32c3.47,8.86,12.32,14.14,21.7,14.17,3.84.01,7.47-.9,10.84-2.65,4.04-2.09,7.1-5.37,8.94-9.52.96-2.17,1.54-4.37,1.69-6.74.04-.62.65-1.11.99-1.3.66-.3,1.29-.18,1.79.19.61.48.84,1.14.78,1.91-.21,2.45-.78,4.72-1.69,7-1.85,4.61-5.15,8.43-9.36,10.99-9.44,5.74-21.42,5.16-30.35-1.31-3.73-2.7-6.71-6.29-8.51-10.58-.4-.95-.26-1.87.53-2.51.8-.59,1.92-.54,2.65.36Z"/>
  </g>
  <path class="cls-20" d="M179.7,42.21l-.09,2.52c-.02.44-.48.65-.84.67s-.82-.22-.83-.67l-.05-2.39c0-.41-.25-.68-.63-.69-.31,0-.67.24-.68.62l-.07,2.46c-.01.46-.47.66-.86.65-.34,0-.84-.2-.84-.65v-3.8c-.02-.43.34-.67.67-.76.36-.1.69.06.95.39.77-.76,2.02-.69,2.75.18.42-.48.91-.66,1.51-.7,1.1-.06,2,.69,2.01,1.81l.03,2.63c0,.48-.33.82-.75.89-.36.06-.93-.16-.94-.64l-.03-2.41c0-.36-.2-.62-.54-.68-.25-.05-.76.13-.77.55Z"/>
  <path class="cls-12" d="M192.02,44.75l-.04-2.32c0-.49-.34-.81-.79-.82-.38,0-.82.27-.83.75l-.03,2.16c0,.51-.34.8-.82.87-.32.04-.9-.17-.9-.66v-6.1c0-.51.59-.75.94-.7.52.07.82.47.82,1.02l-.02,1.53c.85-.58,1.99-.6,2.75.09.41.37.61.96.62,1.51l.02,2.36c0,.49-.26.88-.74.96-.33.06-.96-.12-.97-.63Z"/>
  <path class="cls-20" d="M167.05,44.79l-.05-2.36c0-.48-.36-.78-.75-.82-.47-.04-.88.29-.88.81v2.18c-.02.5-.45.77-.85.77s-.9-.25-.9-.74v-5.69c0-.52.23-.89.71-.99.37-.08.99.08,1,.58l.06,1.87c.74-.41,1.62-.5,2.36-.1.63.34.99,1.06.98,1.77l-.02,2.65c0,.4-.44.6-.72.64-.37.05-.95-.09-.95-.57Z"/>
  <path class="cls-9" d="M207.41,43.13c-.21,1.21-.6,2.32-1.3,3.26s-1.97,1.32-3.04.8c-.34-.17-.37-.55-.29-.82.31-1.04,1.61.23,2.22-1.14-2.05.18-2.32-2.54-2.26-4.51.01-.41.56-.56.83-.55.36.02.73.24.78.66.15,1.18.11,2.84.86,2.86.17,0,.42-.14.46-.37l.38-2.27c.08-.5.35-.8.79-.86s1.05.21.95.76l-.39,2.2Z"/>
  <path class="cls-11" d="M215.61,43.39c.77.99,1.76-.11,2.23-.08.24.01.44.19.63.41.27.32.27.67-.07.97-1.06.93-2.67,1.01-3.8.12-.77-.62-1.08-1.59-.91-2.55.16-.9.82-1.7,1.79-2.03s2.07-.14,2.84.5c.42.35.28.86,0,1.14-.37.36-.81.27-1.21-.02-.47-.35-1.09-.22-1.43.16-.37.4-.4.96-.06,1.4Z"/>
  <path class="cls-20" d="M233.76,42.46l-.08,2.28c-.02.45-.5.67-.88.65s-.86-.3-.85-.76l.02-3.8c0-.41.44-.67.73-.7.39-.05.7.13.98.52.63-.67,1.48-.74,2.23-.34.41.22.68.58.57.96-.13.46-.53.88-1.02.65-.33-.16-.61-.38-.99-.25-.27.09-.7.36-.71.8Z"/>
  <path class="cls-23" d="M172.67,44.56c0,.53-.46.8-.84.82-.37.01-.91-.2-.91-.67v-3.64c-.01-.56.46-.89.91-.86.49.03.86.39.86.95l-.02,3.41Z"/>
  <path class="cls-12" d="M129.68,5.89c-.27.31-.69.36-.97.15-.25-.18-.45-.67-.19-.98l2.74-3.36c.31-.38.87-.28,1.11,0,.3.35.25.8-.06,1.16l-2.63,3.04Z"/>
  <path class="cls-1" d="M131.78,8.97c-.5.17-.91.04-1.06-.41-.11-.32.02-.8.46-.93l2.99-.94c.38-.12.76.01.92.3.17.31.09.87-.32,1l-2.99.99Z"/>
  <path class="cls-23" d="M126.56,3.75c-.08.44-.49.68-.83.64-.31-.05-.69-.38-.62-.76l.56-3.01c.07-.4.4-.6.74-.61s.8.27.72.7l-.57,3.05Z"/>
  <path class="cls-22" d="M149.48,42.45l-3.53.04c-.39,0-.63-.32-.64-.59-.01-.43.29-.68.73-.68h3.25c.34,0,.58.2.65.48.06.22-.06.74-.47.75Z"/>
  <path class="cls-10" d="M148.19,46.65c-.26.19-.64,0-.78-.2-.18-.27-.12-.64.18-.85l2.23-1.6c.29-.21.61-.16.81.05.24.25.21.69-.09.9l-2.35,1.7Z"/>
  <path class="cls-8" d="M150.63,38.83c.27.2.14.57,0,.72-.19.21-.52.3-.79.11l-2.28-1.64c-.28-.2-.28-.57-.16-.78.17-.31.59-.4.89-.18l2.34,1.77Z"/>
  <path class="cls-21" d="M242.13,39.62c-.41.28-.97-.11-1.53-.61-.64.64-1.37.92-1.59.44-.08-.18-.06-.44.13-.59l.97-.78c.57-.46,1.69.31,2.27.99.18.21-.11.45-.24.54Z"/>
  <path class="cls-16" d="M242.29,38.5c-.34-.48.47-.71.57-1.05.05-.17-.1-.26-.21-.26-.42,0-.5.45-.81.41-.2-.02-.38-.26-.31-.51.14-.52.67-.71,1.18-.7.38,0,.68.16.87.38.24.28.31.73.09,1.05-.36.51-1.11,1.05-1.37.68Z"/>
  <circle class="cls-15" cx="171.79" cy="38.94" r=".87"/>
  <path class="cls-19" d="M256.51,8.92c-1.1-1.03-2.75-.71-3.78.36-.6-1.65-1.83-2.59-3.45-2.11-2.09.63-2.18,3.83-.96,5.53l1.93,2.7c.29.4.65.76,1.18.5l2.69-1.35c.89-.45,1.65-.99,2.35-1.77.99-1.12,1.14-2.84.05-3.86ZM256.12,10.96c-.28,1.78-3.24,2.91-4.98,3.85l-1.64-2.34c-.97-1.39-1.22-3.61.11-4.12.51-.2,1.15-.05,1.53.4.96,1.14.29,2.41,1.05,2.61.24.06.5-.05.64-.3.73-1.28,2.02-2.06,2.87-1.35.31.26.53.73.44,1.27Z"/>
  <path class="cls-9" d="M161.74,40.52c-.09-1.13-1-2.23-2.26-2.23h-2.66c-.5-.02-.85.4-.84.9l.04,5.56c0,.48.62.65.97.63.4-.03.83-.28.85-.76l.07-1.33c.76,0,1.37.07,2-.08,1.25-.31,1.92-1.43,1.83-2.67ZM159.31,41.62c-.52.1-.98.07-1.44.02v-1.74s1.25,0,1.25,0c.47,0,.78.35.83.75.05.39-.13.87-.64.97Z"/>
  <path class="cls-9" d="M225.72,41c0-.38-.34-.69-.6-.76-.34-.09-.62.03-.88.34-.83-.63-1.85-.61-2.74-.08-.79.47-1.26,1.36-1.23,2.37.03.97.51,1.82,1.3,2.24.88.47,1.8.42,2.64-.17.19.4.6.5.9.42.22-.06.61-.31.61-.69v-3.66ZM223.01,43.78c-.59,0-1.06-.48-1.06-1.06s.48-1.06,1.06-1.06,1.06.48,1.06,1.06-.48,1.06-1.06,1.06Z"/>
  <path class="cls-5" d="M200.91,41.04c0-.42-.28-.69-.58-.81-.37-.14-.67.1-.93.32-.54-.39-1.2-.57-1.88-.42-1.12.26-1.89,1.21-2.05,2.29-.16,1.11.45,2.27,1.46,2.76.82.4,1.69.28,2.43-.26.28.35.59.52.98.41.25-.07.58-.32.58-.76v-3.54ZM197.95,43.77c-.6-.13-.84-.69-.79-1.15.06-.52.43-1,1.04-.99.65.02,1.05.6.99,1.18-.05.58-.56,1.11-1.25.96Z"/>
  <path class="cls-5" d="M240.6,40c-1.51,0-2.73,1.22-2.73,2.73s1.22,2.73,2.73,2.73,2.73-1.22,2.73-2.73-1.22-2.73-2.73-2.73ZM240.6,43.79c-.59,0-1.06-.48-1.06-1.06s.48-1.06,1.06-1.06,1.06.48,1.06,1.06-.48,1.06-1.06,1.06Z"/>
  <path class="cls-24" d="M153.05,26.89c.81-.81,2.08-.57,2.86.08.66.55,1.04,1.32,1,2.16-.04.79-.52,1.46-1.21,2-4.27,3.3-10.8,2.53-13.68-2.21-2.41-3.96-2-9.17.96-12.71,2.73-3.26,7.17-4.18,10.96-2.34.78.38,1.48.8,2.1,1.36,1.16,1.03,1.09,2.56.08,3.64s-2.41,1.11-3.46.08c-.97-.95-2.43-1.28-3.8-.96-3.1.73-4.27,4.52-3.08,7.59.56,1.44,1.8,2.34,3.08,2.61,1.65.35,3.03-.19,4.18-1.33Z"/>
  <path class="cls-18" d="M165.52,15.7c-.86-.82-1.35.89-2.7,1.52-.8.37-1.72.07-2.15-.6-.46-.73-.26-1.6.38-2.19l2.31-2.09c.94-.85,2.21-1.01,3.18-.13l2.41,2.19c.72.65.9,1.65.29,2.36s-1.67.91-2.39.22l-1.34-1.27Z"/>
  <path class="cls-13" d="M169.35,19.91c-1.86-1.51-4.33-1.9-6.73-1.04-3.72,1.32-5.55,5.86-4.15,9.63,1.1,2.96,3.99,4.77,7.24,4.45,2.84-.28,5.16-2.21,6-4.86.95-2.98.08-6.21-2.36-8.19ZM166.95,27.66c-.63.94-1.77,1.23-2.77.88-.93-.32-1.58-1.22-1.62-2.31-.04-.96.26-1.88,1.03-2.47.59-.46,1.37-.59,2.16-.34,1.59.51,2.21,2.74,1.2,4.24Z"/>
  <path class="cls-13" d="M201.71,26.44c.35-.69.38-1.43.31-2.22-.22-2.52-1.87-4.54-4.32-5.19-3.71-.98-7.46,1.23-8.4,4.98-.46,1.82-.29,3.74.54,5.43,1.94,3.95,7.1,4.58,10.69,2.46,1.12-.67,1.49-2.06.73-3.07-.65-.86-1.72-.99-2.63-.44-1.67,1-4.1,1.1-4.8-.76l5.77-.02c.94,0,1.69-.32,2.13-1.18ZM193.74,24.45c.19-.8.83-1.37,1.48-1.56,1.11-.33,2.48.23,2.6,1.54l-4.08.02Z"/>
  <path class="cls-13" d="M188.03,26.25c-.12-1.55-.8-2.8-2.02-3.69,2.05-1.87,2.08-5.08.36-7.29-1.06-1.22-2.62-2.02-4.29-2.02h-5.8c-1.23,0-2.62,1.07-2.62,2.4l-.02,14.84c0,1.3,1.17,2.35,2.42,2.35h5.81c3.66,0,6.47-2.78,6.17-6.58ZM178.25,18.09h2.97c.5-.01,1.03.11,1.38.54.38.48.36,1.11.09,1.66-.21.42-.75.79-1.37.8l-3.1.03.03-3.02ZM182.01,28.24l-3.72.05v-3.3s3.68,0,3.68,0c.91,0,1.52.75,1.53,1.59.01.76-.56,1.63-1.49,1.65Z"/>
  <path class="cls-24" d="M252.75,30.45c0,1.27-1.1,2.07-2.19,2.12s-2.29-.81-2.3-2.05l-.05-5.99c0-.55-.24-1.13-.7-1.4s-1-.24-1.45.1c-.28.21-.64.67-.64,1.19l-.04,5.89c0,1.29-1.03,2.24-2.23,2.26s-2.32-.94-2.32-2.28v-9.32c0-.95.67-1.68,1.4-2,.9-.4,1.83-.16,2.52.57,1.97-1.6,4.86-1.43,6.59.54,2.04-2.17,5.53-2.19,7.53.02.91,1,1.31,2.33,1.31,3.66v6.57c0,1.22-.97,2.13-2.09,2.23s-2.4-.68-2.42-1.94l-.08-6.3c0-.6-.39-1.11-.88-1.29s-1.1-.03-1.48.41c-.31.36-.45.83-.45,1.32l-.04,5.69Z"/>
  <path class="cls-24" d="M227.49,30.26l-.04-5.84c0-.62-.46-1.17-.86-1.33-.63-.26-1.24-.14-1.68.28-.4.38-.6.83-.6,1.39l-.05,5.76c-.01,1.26-1.18,2.04-2.33,2.04s-2.21-.87-2.22-2.16l-.05-14.79c0-1.35.86-2.42,2.15-2.5,1.21-.08,2.45.82,2.46,2.14l.04,3.94c2.51-1.47,5.79-.5,7.03,2.12.37.78.61,1.64.6,2.52l-.04,6.81c0,1.19-1.29,1.97-2.31,1.91-1.2-.07-2.11-.99-2.11-2.29Z"/>
  <path class="cls-24" d="M238.74,30.15c0,1.33-.98,2.33-2.2,2.41-1.1.08-2.42-.76-2.41-2.04v-9.41c0-1.24,1.38-2.08,2.39-2,1.2.1,2.19,1.02,2.2,2.28l.02,8.76Z"/>
  <circle class="cls-24" cx="236.39" cy="16.21" r="2.35"/>
  <path class="cls-24" d="M213.83,13.46c-.76-.24-1.57-.41-2.37-.4l-5.35.03c-1.15,0-2.36,1.18-2.36,2.4l-.02,14.81c0,1.31,1.18,2.27,2.33,2.27,1.24,0,2.37-.95,2.38-2.24l.03-3.47,3.67-.09c2.45-.24,4.54-1.59,5.49-3.84,1.5-3.56.19-8.22-3.79-9.47ZM211.45,22.22h-3s.03-4.47.03-4.47h3.04c1.19,0,2.07.94,2.05,2.19-.02,1.28-.89,2.27-2.12,2.28Z"/>
</svg>